<?xml version="1.0" encoding="utf-8"?>
<!-- Generator: Adobe Illustrator 16.0.3, SVG Export Plug-In . SVG Version: 6.00 Build 0)  -->
<!DOCTYPE svg PUBLIC "-//W3C//DTD SVG 1.1//EN" "http://www.w3.org/Graphics/SVG/1.1/DTD/svg11.dtd">
<svg version="1.1" id="Layer_1" xmlns="http://www.w3.org/2000/svg" xmlns:xlink="http://www.w3.org/1999/xlink" x="0px" y="0px"
	 width="1282.437px" height="163.492px" viewBox="0 0 1282.437 163.492" enable-background="new 0 0 1282.437 163.492"
	 xml:space="preserve">
<g>
	<g>
		<path fill="#21C3F0" d="M1226.061,64.483l5.544-5.597l34.182,28.531l-34.182,28.514l-5.544-5.647l27.732-22.776L1226.061,64.483z"
			/>
	</g>
	<g>
		<path fill="#E21E2A" d="M48.094,110.345l-5.545,5.586L8.368,87.417l34.18-28.531l5.545,5.643L20.361,87.31L48.094,110.345z"/>
	</g>
	<g>
		<path fill="#E21E2A" d="M133.419,89.083c0,5.606-0.758,10.599-2.297,15.007c-1.543,4.404-3.753,8.139-6.57,11.211
			c-2.849,3.057-6.305,5.413-10.38,7.051c-4.075,1.622-8.676,2.443-13.744,2.443c-3.983,0-8.059-0.382-12.234-1.143
			c-4.169-0.76-8.274-1.966-12.348-3.623V29.159h11.688v26.104l-0.547,12.478c3.345-4.515,6.941-7.703,10.784-9.563
			c3.812-1.849,7.917-2.771,12.296-2.771c3.871,0,7.237,0.794,10.146,2.407c2.919,1.611,5.333,3.887,7.331,6.812
			c1.936,2.93,3.405,6.472,4.41,10.607C132.945,79.368,133.419,83.99,133.419,89.083z M121.471,89.632
			c0-3.543-0.232-6.781-0.76-9.731c-0.517-2.959-1.329-5.483-2.463-7.583c-1.083-2.097-2.534-3.76-4.267-4.94
			c-1.754-1.175-3.841-1.779-6.255-1.779c-1.469,0-2.992,0.238-4.501,0.71c-1.52,0.46-3.083,1.247-4.722,2.346
			c-1.631,1.105-3.366,2.549-5.189,4.363c-1.795,1.81-3.741,4.065-5.778,6.742v32.695c2.27,0.875,4.59,1.591,6.964,2.113
			c2.372,0.521,4.642,0.77,6.781,0.77c2.696,0,5.259-0.43,7.682-1.282c2.434-0.841,4.59-2.261,6.447-4.252
			c1.846-1.991,3.334-4.638,4.429-7.933C120.956,98.592,121.471,94.502,121.471,89.632z"/>
	</g>
	<g>
		<path fill="#E21E2A" d="M203.341,123.999l-0.24-9.066c-3.701,3.629-7.391,6.243-11.193,7.855
			c-3.792,1.602-7.746,2.407-11.891,2.407c-3.86,0-7.154-0.487-9.881-1.47s-4.976-2.332-6.76-4.064
			c-1.754-1.719-3.051-3.746-3.881-6.077c-0.811-2.327-1.239-4.851-1.239-7.576c0-6.752,2.515-12.052,7.542-15.879
			c5.048-3.816,12.468-5.738,22.32-5.738h13.97v-5.898c0-3.984-1.289-7.171-3.822-9.573c-2.553-2.383-6.447-3.584-11.687-3.584
			c-3.812,0-7.561,0.415-11.25,1.272c-3.682,0.852-7.493,2.058-11.425,3.625V59.694c1.469-0.532,3.122-1.066,4.927-1.577
			c1.806-0.507,3.722-0.968,5.736-1.374c2.018-0.4,4.128-0.735,6.304-0.973c2.18-0.25,4.412-0.364,6.641-0.364
			c4.075,0,7.744,0.436,11.018,1.337c3.243,0.892,6.021,2.25,8.272,4.09c2.27,1.835,4.005,4.146,5.208,6.907
			c1.22,2.788,1.805,6.048,1.805,9.804v46.454H203.341z M202.085,93.317h-14.84c-2.917,0-5.434,0.299-7.51,0.875
			c-2.088,0.584-3.843,1.41-5.171,2.48c-1.327,1.078-2.351,2.37-2.987,3.861c-0.66,1.505-0.973,3.187-0.973,5.073
			c0,1.292,0.192,2.534,0.596,3.72c0.426,1.185,1.045,2.24,1.946,3.152c0.894,0.928,2.078,1.646,3.506,2.179
			c1.42,0.548,3.172,0.806,5.212,0.806c2.704,0,5.787-0.814,9.243-2.453c3.456-1.621,7.105-4.205,10.978-7.748V93.317z"/>
	</g>
	<g>
		<path fill="#E21E2A" d="M298.574,123.051c-2.636,0.674-5.363,1.149-8.182,1.443c-2.815,0.285-5.685,0.441-8.604,0.441
			c-8.434,0-14.738-1.92-18.914-5.748c-4.167-3.816-6.255-9.695-6.255-17.611V66.404h-18.845v-9.792h18.845v-18.52l11.706-3.02
			v21.54h30.249v9.792h-30.249v34.235c0,4.825,1.28,8.438,3.845,10.83c2.583,2.397,6.354,3.594,11.37,3.594
			c2.161,0,4.511-0.168,7.066-0.496c2.534-0.346,5.21-0.867,7.967-1.577V123.051z"/>
	</g>
	<g>
		<path fill="#E21E2A" d="M382.805,123.051c-2.655,0.674-5.38,1.149-8.201,1.443c-2.814,0.285-5.685,0.441-8.583,0.441
			c-8.455,0-14.759-1.92-18.935-5.748c-4.146-3.816-6.236-9.695-6.236-17.611V66.404h-18.862v-9.792h18.862v-18.52l11.668-3.02
			v21.54h30.287v9.792h-30.287v34.235c0,4.825,1.298,8.438,3.883,10.83c2.566,2.397,6.354,3.594,11.383,3.594
			c2.129,0,4.469-0.168,7.034-0.496c2.536-0.346,5.191-0.867,7.986-1.577V123.051z"/>
	</g>
	<g>
		<path fill="#E21E2A" d="M435.657,38.757H415.75v-9.598h31.736v85.1h20.08v9.74h-54.048v-9.74h22.139V38.757z"/>
	</g>
	<g>
		<path fill="#E21E2A" d="M553.838,86.738c0,1.662,0,3.044-0.053,4.159c-0.039,1.126-0.109,2.18-0.182,3.164h-47.337
			c0,6.887,1.916,12.174,5.759,15.868c3.86,3.689,9.417,5.534,16.663,5.534c1.967,0,3.933-0.07,5.901-0.223
			c1.966-0.152,3.891-0.379,5.715-0.639c1.823-0.273,3.577-0.582,5.26-0.912c1.684-0.334,3.244-0.7,4.675-1.105v9.6
			c-3.185,0.893-6.781,1.621-10.767,2.169c-4.033,0.568-8.148,0.842-12.467,0.842c-5.778,0-10.732-0.781-14.878-2.347
			c-4.18-1.565-7.595-3.838-10.25-6.812c-2.645-2.975-4.642-6.625-5.919-10.942c-1.279-4.324-1.895-9.194-1.895-14.657
			c0-4.738,0.657-9.234,2.037-13.461c1.378-4.221,3.364-7.943,5.968-11.14c2.606-3.188,5.83-5.737,9.633-7.614
			c3.809-1.879,8.148-2.816,12.962-2.816c4.712,0,8.859,0.733,12.487,2.204c3.599,1.48,6.682,3.568,9.146,6.279
			c2.493,2.702,4.368,5.997,5.644,9.863C553.219,77.625,553.838,81.953,553.838,86.738z M541.704,85.07
			c0.141-3.001-0.143-5.747-0.852-8.226c-0.72-2.479-1.854-4.623-3.324-6.411c-1.512-1.789-3.366-3.188-5.616-4.198
			c-2.249-1.007-4.834-1.505-7.795-1.505c-2.536,0-4.887,0.487-6.976,1.471c-2.105,0.982-3.93,2.372-5.439,4.171
			c-1.521,1.789-2.76,3.922-3.7,6.437c-0.923,2.499-1.522,5.26-1.735,8.261H541.704z"/>
	</g>
	<polygon fill="#E21E2A" points="596.076,35.553 582.088,49.942 627.458,87.569 582.047,124.971 596.076,139.264 658.171,87.417 	
		"/>
	<polygon fill="#21C3F0" points="641.818,50.18 627.691,35.817 565.598,87.665 627.691,139.497 641.818,125.24 596.412,87.508 	"/>
	<g>
		<path fill="#21C3F0" d="M726.104,105.844c0,2.383-0.384,4.501-1.184,6.375c-0.812,1.882-1.928,3.543-3.294,4.998
			c-1.399,1.461-3.011,2.707-4.838,3.735c-1.824,1.029-3.821,1.886-5.876,2.55c-2.067,0.664-4.218,1.16-6.428,1.469
			c-2.179,0.32-4.308,0.472-6.426,0.472c-4.574,0-8.769-0.203-12.579-0.604c-3.844-0.405-7.582-1.054-11.242-1.946v-10.732
			c3.943,1.114,7.844,1.965,11.738,2.549c3.911,0.576,7.752,0.875,11.614,0.875c5.587,0,9.741-0.77,12.419-2.291
			c2.677-1.514,4.003-3.684,4.003-6.502c0-1.211-0.191-2.289-0.617-3.258c-0.428-0.963-1.186-1.875-2.32-2.764
			c-1.116-0.865-2.841-1.767-5.211-2.715c-2.32-0.934-5.546-2.002-9.632-3.209c-3.03-0.902-5.827-1.92-8.412-3.061
			c-2.585-1.147-4.804-2.499-6.677-4.065c-1.876-1.562-3.348-3.401-4.434-5.494c-1.073-2.098-1.611-4.586-1.611-7.455
			c0-1.875,0.444-3.938,1.328-6.178c0.852-2.241,2.361-4.314,4.452-6.244c2.087-1.922,4.934-3.518,8.534-4.786
			c3.558-1.283,8.059-1.92,13.411-1.92c2.634,0,5.574,0.151,8.798,0.436c3.221,0.299,6.568,0.796,10.072,1.505V67.99
			c-3.679-0.887-7.153-1.55-10.458-1.977c-3.294-0.426-6.134-0.628-8.557-0.628c-2.89,0-5.349,0.213-7.337,0.665
			c-2,0.45-3.609,1.063-4.836,1.845c-1.236,0.785-2.118,1.697-2.657,2.752c-0.528,1.054-0.811,2.179-0.811,3.39
			c0,1.208,0.233,2.296,0.711,3.295c0.477,0.984,1.36,1.93,2.605,2.844c1.286,0.922,3.081,1.835,5.361,2.761
			c2.271,0.903,5.262,1.907,8.911,2.977c3.983,1.17,7.348,2.392,10.072,3.658c2.728,1.267,4.961,2.702,6.662,4.257
			c1.683,1.577,2.89,3.342,3.647,5.307C725.75,101.1,726.104,103.341,726.104,105.844z"/>
	</g>
	<g>
		<path fill="#21C3F0" d="M804.62,121.749c-3.049,1.17-6.162,2.037-9.354,2.595c-3.206,0.557-6.5,0.826-9.913,0.826
			c-10.646,0-18.846-2.878-24.603-8.651c-5.738-5.768-8.627-14.206-8.627-25.301c0-5.332,0.852-10.156,2.517-14.505
			c1.66-4.338,3.983-8.048,6.962-11.14c2.989-3.081,6.588-5.463,10.746-7.146c4.146-1.683,8.738-2.514,13.763-2.514
			c3.485,0,6.73,0.254,9.794,0.741c3.052,0.496,5.949,1.302,8.715,2.411v11.14c-2.908-1.515-5.879-2.614-8.89-3.314
			c-3.029-0.688-6.134-1.044-9.355-1.044c-3.01,0-5.859,0.567-8.514,1.708c-2.645,1.151-4.977,2.791-7.014,4.942
			c-1.988,2.143-3.601,4.763-4.735,7.845c-1.184,3.091-1.755,6.574-1.755,10.476c0,8.14,1.989,14.242,5.924,18.286
			c3.981,4.05,9.473,6.067,16.501,6.067c3.173,0,6.251-0.355,9.242-1.069c2.933-0.711,5.83-1.79,8.596-3.224V121.749z"/>
	</g>
	<g>
		<path fill="#21C3F0" d="M834.563,56.849h10.665l0.336,12.424c3.974-4.79,7.914-8.262,11.778-10.405
			c3.86-2.144,7.771-3.224,11.707-3.224c6.994,0,12.253,2.26,15.854,6.776c3.598,4.526,5.28,11.237,5.026,20.137H878.1
			c0.121-5.904-0.739-10.192-2.585-12.849c-1.844-2.666-4.571-3.993-8.148-3.993c-1.573,0-3.134,0.274-4.746,0.831
			c-1.561,0.567-3.202,1.459-4.886,2.691c-1.683,1.231-3.456,2.807-5.349,4.729c-1.847,1.93-3.895,4.252-6.021,6.979v43.304h-11.802
			V56.849z"/>
	</g>
	<g>
		<path fill="#21C3F0" d="M931.924,66.521h-19.958v-9.672h31.767v57.657h20.069v9.741h-54.017v-9.741h22.139V66.521z M935.997,28.6
			c1.329,0,2.517,0.238,3.649,0.701c1.097,0.471,2.089,1.135,2.9,1.977c0.85,0.856,1.471,1.824,1.936,2.929
			c0.477,1.089,0.72,2.285,0.72,3.589c0,1.256-0.243,2.442-0.72,3.557c-0.465,1.116-1.086,2.109-1.936,2.951
			c-0.812,0.851-1.804,1.505-2.9,1.98c-1.133,0.462-2.32,0.71-3.649,0.71c-1.275,0-2.504-0.248-3.598-0.71
			c-1.133-0.475-2.087-1.129-2.938-1.98c-0.801-0.842-1.469-1.835-1.948-2.951c-0.464-1.115-0.709-2.3-0.709-3.557
			c0-1.304,0.245-2.5,0.709-3.589c0.479-1.105,1.147-2.073,1.948-2.929c0.852-0.842,1.806-1.505,2.938-1.977
			C933.493,28.838,934.722,28.6,935.997,28.6z"/>
	</g>
	<g>
		<path fill="#21C3F0" d="M1046.068,89.332c0,6.001-0.85,11.237-2.513,15.708c-1.682,4.479-3.973,8.184-6.964,11.148
			c-2.938,2.949-6.426,5.164-10.45,6.65c-4.035,1.47-8.392,2.203-13.107,2.203c-2.138,0-4.267-0.105-6.406-0.334
			c-2.127-0.223-4.259-0.603-6.447-1.15v28.195h-11.706V56.849h10.431l0.709,11.283c3.366-4.606,6.943-7.845,10.765-9.705
			c3.79-1.861,7.914-2.783,12.326-2.783c3.862,0,7.245,0.806,10.147,2.417c2.908,1.612,5.353,3.887,7.318,6.813
			c1.967,2.929,3.434,6.472,4.431,10.606C1045.604,79.617,1046.068,84.239,1046.068,89.332z M1034.128,89.879
			c0-3.542-0.243-6.791-0.758-9.729c-0.518-2.96-1.35-5.483-2.464-7.598c-1.117-2.094-2.565-3.741-4.319-4.927
			c-1.721-1.185-3.788-1.779-6.202-1.779c-1.47,0-2.992,0.238-4.512,0.699c-1.51,0.472-3.103,1.257-4.731,2.358
			c-1.646,1.088-3.366,2.549-5.172,4.363c-1.804,1.815-3.741,4.064-5.789,6.74v32.686c2.14,0.892,4.389,1.602,6.783,2.123
			c2.37,0.508,4.672,0.77,6.974,0.77c6.304,0,11.23-2.147,14.829-6.41C1032.324,104.895,1034.128,98.46,1034.128,89.879z"/>
	</g>
	<g>
		<path fill="#21C3F0" d="M1126.986,123.299c-2.625,0.664-5.351,1.15-8.167,1.435c-2.83,0.293-5.666,0.436-8.608,0.436
			c-8.439,0-14.748-1.907-18.913-5.731c-4.175-3.832-6.232-9.696-6.232-17.612V66.653h-18.866v-9.804h18.866V38.326l11.686-3.021
			v21.544h30.235v9.804h-30.235v34.225c0,4.835,1.277,8.449,3.832,10.842c2.585,2.396,6.375,3.592,11.383,3.592
			c2.161,0,4.501-0.166,7.064-0.496c2.536-0.344,5.21-0.866,7.956-1.592V123.299z"/>
	</g>
	<g>
		<path fill="#21C3F0" d="M1205.587,105.844c0,2.383-0.407,4.501-1.208,6.375c-0.811,1.882-1.927,3.543-3.293,4.998
			c-1.378,1.461-2.992,2.707-4.838,3.735c-1.822,1.029-3.788,1.886-5.857,2.55c-2.086,0.664-4.216,1.16-6.426,1.469
			c-2.18,0.32-4.307,0.472-6.447,0.472c-4.55,0-8.737-0.203-12.56-0.604c-3.841-0.405-7.582-1.054-11.261-1.946v-10.732
			c3.943,1.114,7.844,1.965,11.737,2.549c3.916,0.576,7.774,0.875,11.619,0.875c5.591,0,9.736-0.77,12.415-2.291
			c2.706-1.514,4.026-3.684,4.026-6.502c0-1.211-0.215-2.289-0.611-3.258c-0.424-0.963-1.216-1.875-2.331-2.764
			c-1.135-0.865-2.838-1.767-5.21-2.715c-2.34-0.934-5.547-2.002-9.62-3.209c-3.04-0.902-5.857-1.92-8.443-3.061
			c-2.554-1.147-4.785-2.499-6.678-4.065c-1.846-1.562-3.347-3.401-4.411-5.494c-1.095-2.098-1.61-4.586-1.61-7.455
			c0-1.875,0.424-3.938,1.306-6.178c0.871-2.241,2.342-4.314,4.481-6.244c2.078-1.922,4.928-3.518,8.504-4.786
			c3.579-1.283,8.06-1.92,13.441-1.92c2.625,0,5.545,0.151,8.768,0.436c3.222,0.299,6.588,0.796,10.095,1.505V67.99
			c-3.7-0.887-7.156-1.55-10.45-1.977c-3.293-0.426-6.14-0.628-8.555-0.628c-2.917,0-5.361,0.213-7.35,0.665
			c-1.995,0.45-3.606,1.063-4.833,1.845c-1.237,0.785-2.14,1.697-2.655,2.752c-0.518,1.054-0.812,2.179-0.812,3.39
			c0,1.208,0.241,2.296,0.718,3.295c0.467,0.984,1.331,1.93,2.606,2.844c1.277,0.922,3.051,1.835,5.353,2.761
			c2.28,0.903,5.24,1.907,8.91,2.977c3.981,1.17,7.346,2.392,10.054,3.658c2.747,1.267,4.959,2.702,6.66,4.257
			c1.683,1.577,2.919,3.342,3.671,5.307C1205.212,101.1,1205.587,103.341,1205.587,105.844z"/>
	</g>
</g>
</svg>
