<?xml version="1.0" encoding="utf-8"?>
<!-- Generator: Adobe Illustrator 16.0.3, SVG Export Plug-In . SVG Version: 6.00 Build 0)  -->
<!DOCTYPE svg PUBLIC "-//W3C//DTD SVG 1.1//EN" "http://www.w3.org/Graphics/SVG/1.1/DTD/svg11.dtd">
<svg version="1.1" id="Layer_1" xmlns="http://www.w3.org/2000/svg" xmlns:xlink="http://www.w3.org/1999/xlink" x="0px" y="0px"
	 width="50px" height="50px" viewBox="0 0 50 50" enable-background="new 0 0 50 50" xml:space="preserve">
<path fill="#FFFFFF" stroke="#000000" stroke-width="2" stroke-miterlimit="10" d="M42.76,25.06c0-1.282-0.141-2.529-0.396-3.733
	l5.918-3.417l-5.482-9.495l-5.936,3.427c-1.844-1.666-4.029-2.958-6.447-3.741V1.267H19.451v6.834
	c-2.42,0.782-4.604,2.074-6.448,3.74L7.07,8.415L1.587,17.91l5.918,3.417c-0.257,1.204-0.398,2.451-0.398,3.733
	c0,1.28,0.142,2.528,0.398,3.731l-5.917,3.416l5.482,9.496l5.932-3.426c1.845,1.666,4.028,2.959,6.449,3.74v6.836h10.965v-6.836
	c2.418-0.781,4.604-2.074,6.449-3.74l5.934,3.426l5.482-9.494l-5.918-3.418C42.619,27.588,42.76,26.34,42.76,25.06z"/>
<circle fill="#FFFFFF" stroke="#000000" stroke-width="2" stroke-miterlimit="10" cx="24.934" cy="25.06" r="6.635"/>
</svg>
