<?xml version="1.0" encoding="utf-8"?>
<!-- Generator: Adobe Illustrator 16.0.3, SVG Export Plug-In . SVG Version: 6.00 Build 0)  -->
<!DOCTYPE svg PUBLIC "-//W3C//DTD SVG 1.1//EN" "http://www.w3.org/Graphics/SVG/1.1/DTD/svg11.dtd">
<svg version="1.1" id="Layer_1" xmlns="http://www.w3.org/2000/svg" xmlns:xlink="http://www.w3.org/1999/xlink" x="0px" y="0px"
	 width="20px" height="20px" viewBox="0 0 20 20" enable-background="new 0 0 20 20" xml:space="preserve">
<path fill="#010101" d="M9.865,0.001c-5.521,0.074-9.938,4.61-9.864,10.132c0.074,5.52,4.61,9.936,10.131,9.863
	c5.521-0.074,9.937-4.611,9.864-10.132C19.923,4.344,15.386-0.073,9.865,0.001z M9.835,16.084L9.78,16.083
	c-0.851-0.025-1.45-0.651-1.426-1.489c0.024-0.823,0.638-1.421,1.46-1.421l0.049,0.001c0.874,0.025,1.467,0.646,1.442,1.508
	C11.282,15.508,10.677,16.084,9.835,16.084z M13.412,8.986c-0.199,0.284-0.64,0.637-1.193,1.068l-0.61,0.421
	c-0.336,0.261-0.537,0.506-0.613,0.746c-0.06,0.19-0.089,0.24-0.094,0.626L10.9,11.945H8.57l0.006-0.196
	c0.029-0.811,0.049-1.287,0.385-1.681C9.488,9.449,10.65,8.701,10.7,8.669c0.166-0.125,0.306-0.268,0.411-0.42
	c0.245-0.337,0.354-0.603,0.354-0.863c0-0.362-0.107-0.697-0.319-0.995c-0.204-0.288-0.592-0.433-1.153-0.433
	c-0.556,0-0.937,0.176-1.165,0.538C8.592,6.868,8.474,7.259,8.474,7.658v0.1H6.072l0.004-0.104c0.062-1.472,0.587-2.531,1.56-3.149
	c0.612-0.394,1.373-0.593,2.26-0.593c1.162,0,2.143,0.283,2.915,0.839c0.782,0.564,1.18,1.41,1.18,2.512
	C13.991,7.88,13.796,8.459,13.412,8.986z"/>
</svg>
