<?xml version="1.0" encoding="utf-8"?>
<!-- Generator: Adobe Illustrator 16.0.3, SVG Export Plug-In . SVG Version: 6.00 Build 0)  -->
<!DOCTYPE svg PUBLIC "-//W3C//DTD SVG 1.1//EN" "http://www.w3.org/Graphics/SVG/1.1/DTD/svg11.dtd">
<svg version="1.1" id="Layer_1" xmlns="http://www.w3.org/2000/svg" xmlns:xlink="http://www.w3.org/1999/xlink" x="0px" y="0px"
	 width="100px" height="100px" viewBox="0 0 100 100" enable-background="new 0 0 100 100" xml:space="preserve">
<path fill="#010101" d="M73.849,11.031c-0.024-0.024-0.051-0.045-0.075-0.07c-0.231-0.305-0.504-0.563-0.813-0.758
	c-1.018-0.643-2.358-0.671-3.422,0.042c-1.024,0.689-1.502,1.876-1.351,3.022c0.038,0.281,0.106,0.559,0.223,0.828
	c3.791,14.54,0.002,30.643-11.391,42.035c-11.408,11.41-27.543,15.191-42.1,11.374l-0.007-0.005c-0.204-0.076-0.41-0.129-0.617-0.16
	c-1.441-0.223-2.89,0.588-3.417,2.008c-0.372,1.008-0.194,2.083,0.38,2.899c0.182,0.19,0.351,0.389,0.537,0.577
	c0.044,0.044,0.082,0.091,0.126,0.135c17.102,17.102,44.826,17.102,61.926,0C90.95,55.856,90.95,28.131,73.849,11.031z"/>
</svg>
