<?xml version="1.0" encoding="utf-8"?>
<!-- Generator: Adobe Illustrator 16.0.3, SVG Export Plug-In . SVG Version: 6.00 Build 0)  -->
<!DOCTYPE svg PUBLIC "-//W3C//DTD SVG 1.1//EN" "http://www.w3.org/Graphics/SVG/1.1/DTD/svg11.dtd">
<svg version="1.1" id="Layer_1" xmlns="http://www.w3.org/2000/svg" xmlns:xlink="http://www.w3.org/1999/xlink" x="0px" y="0px"
	 width="100px" height="100px" viewBox="0 0 100 100" enable-background="new 0 0 100 100" xml:space="preserve">
<path fill="#010101" d="M94.998,46c-0.906,0-3.994,0-4.9,0c-2.762,0-5,1.791-5,4c0,2.209,2.238,4,5,4c0.906,0,3.994,0,4.9,0
	c2.762,0,5-1.791,5-4C99.998,47.792,97.76,46,94.998,46z M49.999,22.501c-15.251,0-27.5,12.248-27.5,27.5
	c0,15.252,12.248,27.5,27.5,27.5c15.252,0,27.499-12.247,27.499-27.5C77.498,34.749,65.251,22.501,49.999,22.501z M49.999,70.001
	c-11.051,0-20-8.951-20-20c0-11.049,8.949-20.001,20-20.001c11.049,0,20,8.953,20,20.001C69.999,61.05,61.048,70.001,49.999,70.001z
	 M14.898,50c0-2.209-2.137-4-4.898-4c-0.922,0-4.08,0-5,0c-2.762,0-5,1.791-5,4c0,2.209,2.238,4,5,4c0.92,0,4.078,0,5,0
	C12.761,54.001,14.898,52.21,14.898,50z M49.999,14.999c2.209,0,4-2.238,4-5c0-0.914,0-4.084,0-5c0-2.762-1.791-5-4-5s-4,2.238-4,5
	c0,0.916,0,4.085,0,5C45.999,12.761,47.79,14.999,49.999,14.999z M49.999,85c-2.209,0-4,2.238-4,5c0,0.914,0,4.084,0,5
	c0,2.762,1.791,5,4,5s4-2.238,4-5c0-0.916,0-4.086,0-5C53.999,87.238,52.208,85,49.999,85z M86.826,18.829
	c1.953-1.951,2.27-4.803,0.707-6.365c-1.563-1.562-4.412-1.244-6.363,0.707c-0.539,0.539-2.961,2.961-3.5,3.5
	c-1.953,1.953-2.27,4.803-0.707,6.363c1.563,1.564,4.412,1.248,6.363-0.705C83.865,21.79,86.289,19.368,86.826,18.829z
	 M16.669,77.672c-0.539,0.539-2.961,2.963-3.5,3.5c-1.951,1.951-2.267,4.801-0.707,6.363c1.562,1.563,4.412,1.244,6.363-0.707
	c0.539-0.537,2.963-2.959,3.5-3.498c1.953-1.953,2.27-4.803,0.707-6.365S18.621,75.721,16.669,77.672z M18.83,13.171
	c-1.953-1.951-4.803-2.269-6.365-0.707c-1.563,1.563-1.244,4.412,0.707,6.365c0.539,0.537,2.961,2.961,3.5,3.5
	c1.953,1.951,4.801,2.268,6.363,0.705s1.246-4.41-0.705-6.363C21.791,16.132,19.369,13.71,18.83,13.171z M77.67,83.33
	c0.539,0.539,2.963,2.961,3.502,3.498c1.951,1.951,4.801,2.27,6.363,0.707c1.561-1.563,1.244-4.412-0.707-6.363
	c-0.539-0.537-2.961-2.961-3.5-3.5c-1.951-1.951-4.803-2.27-6.365-0.707S75.719,81.377,77.67,83.33z"/>
</svg>
